<?xml version="1.0" standalone="no"?>
<!DOCTYPE svg PUBLIC "-//W3C//DTD SVG 20010904//EN"
 "http://www.w3.org/TR/2001/REC-SVG-20010904/DTD/svg10.dtd">
<svg version="1.0" xmlns="http://www.w3.org/2000/svg"
 width="117.000000pt" height="119.000000pt" viewBox="0 0 117.000000 119.000000"
 preserveAspectRatio="xMidYMid meet">

<g transform="translate(0.000000,119.000000) scale(0.100000,-0.100000)"
fill="#A6C36F" stroke="none">
<path d="M631 1075 c58 -65 124 -279 92 -298 -5 -3 -34 18 -65 47 -42 37 -55
55 -49 65 8 12 15 11 45 -7 42 -25 46 -15 10 27 -28 33 -40 38 -47 19 -2 -7
-3 -5 -2 5 2 10 -3 17 -12 17 -13 0 -13 2 -2 17 10 12 11 15 1 9 -7 -4 -27
-12 -44 -17 -24 -7 -29 -6 -20 3 17 17 15 28 -5 21 -12 -5 -14 -3 -8 8 4 8 -5
2 -20 -13 l-28 -27 -46 23 c-62 32 -229 88 -244 83 -7 -2 11 -16 39 -30 37
-18 66 -46 107 -98 54 -71 55 -74 41 -101 -17 -34 -4 -68 26 -68 29 0 35 -41
15 -94 -15 -39 -16 -52 -5 -95 7 -28 16 -54 21 -57 5 -3 9 -14 9 -25 0 -15 -5
-18 -23 -14 -14 4 -28 1 -35 -8 -17 -20 8 -98 48 -153 36 -51 34 -90 -7 -100
-42 -11 -212 6 -256 25 -50 22 -65 38 -72 77 -8 43 6 60 36 43 13 -7 27 -12
31 -11 4 1 4 -6 1 -15 -4 -11 -3 -14 5 -9 7 4 12 16 12 26 0 13 5 18 15 13 10
-3 15 0 13 8 -2 10 8 14 35 13 42 -1 47 9 15 30 -46 29 -74 29 -128 0 -72 -39
-90 -96 -51 -160 27 -44 90 -70 200 -84 52 -7 99 -16 105 -21 6 -5 22 -18 35
-29 13 -11 32 -20 43 -20 10 0 18 -4 18 -8 0 -12 43 -9 53 3 5 7 10 7 15 0 16
-21 102 -22 114 -1 8 14 39 16 218 16 197 0 210 1 220 19 28 53 -10 91 -90 91
-26 0 -39 4 -35 10 16 25 85 289 85 322 0 45 14 49 34 11 28 -52 16 -12 -15
50 -64 125 -185 262 -354 398 -111 89 -125 99 -94 64z m-236 -123 c26 -14 31
-22 23 -30 -19 -19 -32 -14 -50 18 -20 35 -19 36 27 12z m138 -24 c-16 -21
-11 -48 8 -48 10 0 21 5 24 10 3 6 14 10 23 10 12 0 8 -9 -17 -30 -20 -18 -31
-36 -28 -44 3 -8 -3 -38 -14 -68 -10 -29 -19 -72 -19 -95 0 -38 4 -45 43 -70
23 -16 55 -34 70 -41 19 -8 27 -18 23 -27 -7 -19 8 -19 24 0 7 8 19 15 26 15
15 0 17 8 14 58 -1 17 2 32 7 32 5 0 10 -23 11 -50 1 -37 -2 -52 -13 -56 -21
-8 -19 -37 5 -67 31 -39 24 -40 -16 -1 -33 31 -42 35 -83 32 l-46 -3 -2 -70
c-1 -38 -2 -78 -2 -87 -1 -10 -6 -18 -11 -18 -6 0 -9 3 -9 8 1 4 0 9 -1 12 -2
4 -24 135 -33 195 -1 11 2 23 8 27 5 4 -1 8 -15 8 -17 0 -29 8 -37 27 -18 38
-16 68 7 115 11 23 20 51 20 62 0 10 7 28 17 38 24 27 11 31 -36 12 -60 -24
-80 -12 -41 24 16 16 27 31 24 34 -3 4 3 5 13 5 12 -2 19 6 22 23 3 24 17 40
35 40 5 0 4 -6 -1 -12z m295 -48 c8 0 112 -98 112 -106 0 -3 11 -20 25 -38 31
-41 31 -50 1 -83 -16 -16 -22 -32 -18 -46 3 -12 7 -16 9 -10 8 23 33 2 27 -22
-3 -13 0 -26 7 -31 9 -5 11 -2 6 9 -3 9 -2 19 3 22 5 3 13 -9 18 -26 7 -31 5
-41 -33 -166 -3 -7 -12 -13 -21 -13 -13 0 -15 6 -9 28 17 61 14 87 -15 128
-16 22 -32 54 -36 70 -3 16 -15 49 -27 74 -11 25 -24 56 -30 70 -5 14 -13 32
-17 41 -5 9 -14 35 -20 58 -6 23 -14 50 -17 59 -6 15 -5 15 11 0 9 -10 20 -18
24 -18z m-388 1 c-5 -11 -15 -23 -21 -27 -6 -3 -3 5 6 20 20 30 30 35 15 7z
m194 -96 c22 -9 41 -26 46 -41 6 -14 14 -23 19 -19 5 3 5 -11 -1 -32 -17 -63
-26 -74 -56 -69 -38 6 -62 17 -63 27 -4 49 7 149 16 149 1 0 19 -7 39 -15z
m371 -135 c3 -5 -1 -10 -10 -10 -9 0 -13 5 -10 10 3 6 8 10 10 10 2 0 7 -4 10
-10z m9 -46 c3 -8 2 -12 -4 -9 -6 3 -10 10 -10 16 0 14 7 11 14 -7z m-134 -23
c7 -14 7 -22 -1 -27 -12 -7 -29 12 -29 34 0 19 18 14 30 -7z m-56 -17 c10 -26
7 -53 -8 -61 -8 -4 -15 -17 -17 -27 -5 -26 -26 -31 -37 -9 -17 31 19 112 49
113 4 0 10 -7 13 -16z m79 -76 c3 -35 12 -106 21 -158 20 -120 21 -113 -11
-105 -43 10 -78 41 -103 88 -23 43 -23 46 -9 112 8 38 19 70 25 72 6 2 17 -16
23 -42 6 -25 13 -45 14 -45 2 0 1 28 -1 61 -3 45 -1 64 9 70 24 15 27 11 32
-53z m45 -43 c-3 -3 -9 2 -12 12 -6 14 -5 15 5 6 7 -7 10 -15 7 -18z m-245
-23 c9 -1 17 -8 17 -16 0 -7 7 -26 14 -42 8 -15 13 -31 10 -36 -3 -4 -1 -8 5
-8 6 0 19 -17 30 -38 27 -53 87 -88 159 -94 6 -1 12 -8 13 -17 0 -10 2 -12 6
-3 5 14 23 16 23 3 0 -16 -40 -23 -55 -11 -9 8 -29 9 -57 5 l-43 -7 19 21 c22
24 11 29 -14 6 -40 -37 -98 33 -105 126 -2 24 -4 49 -4 55 -1 16 -49 36 -57
23 -3 -6 -1 -16 5 -22 6 -6 11 -22 11 -35 0 -19 -4 -23 -17 -17 -15 5 -16 4
-5 -6 6 -7 12 -22 12 -33 -1 -16 -7 -11 -25 19 -23 37 -34 112 -20 127 5 4 23
4 78 0z m-255 -77 c1 -11 -5 -5 -12 15 -7 19 -10 39 -7 45 6 11 19 -29 19 -60z
m59 -82 c-3 -10 -5 -4 -5 12 0 17 2 24 5 18 2 -7 2 -21 0 -30z m73 11 c0 -8
-4 -14 -10 -14 -5 0 -10 9 -10 21 0 11 5 17 10 14 6 -3 10 -13 10 -21z m117
-26 c-3 -8 -6 -5 -6 6 -1 11 2 17 5 13 3 -3 4 -12 1 -19z m13 -32 c0 -2 -7 -6
-15 -10 -8 -3 -15 -1 -15 4 0 6 7 10 15 10 8 0 15 -2 15 -4z m-130 -24 c0 -11
-41 -44 -47 -38 -8 8 7 26 23 26 8 0 12 5 9 10 -3 6 -1 10 4 10 6 0 11 -3 11
-8z m120 -6 c0 -2 -7 -9 -15 -16 -13 -11 -14 -10 -9 4 5 14 24 23 24 12z m310
-16 c0 -5 -5 -10 -11 -10 -5 0 -7 5 -4 10 3 6 8 10 11 10 2 0 4 -4 4 -10z m70
-4 c0 -2 -7 -9 -15 -16 -13 -11 -14 -10 -9 4 5 14 24 23 24 12z m-423 -29
c-19 -18 -60 -40 -53 -29 3 5 -4 12 -17 16 -18 5 -20 8 -7 16 21 14 50 12 50
-2 0 -7 5 -5 11 5 6 9 14 15 20 12 5 -4 4 -11 -4 -18z m-145 -9 c-7 -7 -12 -8
-12 -2 0 14 12 26 19 19 2 -3 -1 -11 -7 -17z"/>
</g>
</svg>
